<svg width="1033" height="245" viewBox="0 0 1033 245" fill="none" xmlns="http://www.w3.org/2000/svg">
<rect width="245" height="245" rx="28.7109" fill="#6D3BE8"/>
<path d="M203.087 159.352C202.308 198.606 152.668 211.255 122.416 196.745C92.2655 211.305 42.651 198.53 41.9469 159.377C20.7482 144.389 19.3148 106.242 40.8656 90.9525C40.589 84.4898 41.3685 78.5301 44.537 72.8469C50.019 63.0648 59.9771 58.8905 70.9914 59.5191C73.2294 47.9013 84.7215 39.0497 96.3141 38.3456C106.423 37.7169 117.559 41.6891 118.465 53.0303C118.971 61.0194 118.168 70.6685 118.772 78.8411C119.677 82.9652 125.007 83.9869 126.239 79.3348C126.893 70.458 125.409 60.4747 126.239 51.7236C126.842 45.5124 132.827 41.0111 138.46 39.3766C153.498 35.0011 171.251 44.1293 174.747 59.7203C185.233 59.2677 195.166 63.3917 200.497 72.6709C203.766 78.354 204.395 84.0875 204.395 90.5753C224.94 106.644 224.638 144.213 203.087 159.402V159.352ZM104.059 125.102C106.473 122.713 104.512 116.627 102.877 114.062C97.672 105.839 85.501 105.362 79.4658 112.956C76.8254 116.275 73.7072 125.63 80.1448 126.384C85.5513 127.013 83.6111 120.329 86.2012 117.865C89.596 114.621 95.4193 116.636 96.6662 120.902C96.6662 122.781 96.3896 124.197 98.6528 125.655C100.388 126.787 102.601 126.56 104.059 125.102ZM154.152 107.474C147.236 107.675 140.899 113.308 140.17 120.223C139.359 124.625 142.936 128.321 146.935 125.479C148.745 124.197 148.192 121.933 148.896 120.072C150.832 114.741 158.779 114.943 160.338 120.5C160.941 122.688 160.212 124.171 162.525 125.68C164.059 126.686 165.568 126.686 167.102 125.68C169.919 123.844 169.139 119.394 168.108 116.728C165.945 111.145 160.187 107.323 154.177 107.499L154.152 107.474ZM89.0719 137.248C86.8338 137.474 84.7466 139.611 84.8221 141.925C84.973 146.376 93.372 153.316 96.8925 155.655C113.967 167.097 138.913 165.135 154.076 151.305C157.119 148.539 163.38 141.648 158.376 138.103C153.699 134.808 151.536 140.014 149.173 142.705C137.58 155.982 111.352 156.636 98.351 145.018C94.8048 142.446 93.0953 136.845 89.0719 137.248Z" fill="white"/>
<path d="M293.18 174.958V69.9934H311.496L350.805 123.392H342.069L380.533 69.9934H398.849V174.958H379.547V91.8317L387.014 93.6633L347.141 146.78H344.887L306.001 93.6633L312.341 91.8317V174.958H293.18Z" fill="black"/>
<path d="M417.387 174.958V98.3128H435.844V174.958H417.387ZM417.387 89.7184V69.9934H435.844V89.7184H417.387Z" fill="black"/>
<path d="M452.885 174.958V98.3128H470.215V113.388L468.806 110.711C470.591 106.109 473.503 102.633 477.542 100.285C481.674 97.8431 486.465 96.6221 491.913 96.6221C497.548 96.6221 502.527 97.8431 506.847 100.285C511.262 102.727 514.69 106.156 517.132 110.57C519.575 114.891 520.796 119.916 520.796 125.646V174.958H502.339V130.014C502.339 126.632 501.681 123.72 500.366 121.278C499.051 118.836 497.22 116.958 494.871 115.643C492.617 114.234 489.94 113.529 486.841 113.529C483.835 113.529 481.158 114.234 478.81 115.643C476.461 116.958 474.63 118.836 473.315 121.278C472 123.72 471.342 126.632 471.342 130.014V174.958H452.885Z" fill="black"/>
<path d="M572.048 176.649C564.628 176.649 558.006 174.911 552.183 171.436C546.359 167.867 541.757 163.029 538.375 156.924C534.994 150.819 533.303 144.056 533.303 136.635C533.303 129.121 534.994 122.358 538.375 116.347C541.757 110.336 546.359 105.545 552.183 101.976C558.1 98.4067 564.675 96.6221 571.908 96.6221C577.731 96.6221 582.897 97.7962 587.406 100.144C592.008 102.399 595.624 105.592 598.254 109.725L595.437 113.529V68.3027H613.893V174.958H596.423V160.165L598.395 163.828C595.765 167.961 592.102 171.154 587.406 173.408C582.709 175.569 577.59 176.649 572.048 176.649ZM574.021 159.742C578.248 159.742 581.958 158.756 585.151 156.783C588.345 154.811 590.834 152.087 592.619 148.611C594.497 145.136 595.437 141.144 595.437 136.635C595.437 132.221 594.497 128.276 592.619 124.801C590.834 121.231 588.345 118.46 585.151 116.488C581.958 114.515 578.248 113.529 574.021 113.529C569.888 113.529 566.178 114.562 562.89 116.629C559.603 118.601 557.02 121.325 555.141 124.801C553.357 128.182 552.464 132.127 552.464 136.635C552.464 141.144 553.357 145.136 555.141 148.611C557.02 152.087 559.603 154.811 562.89 156.783C566.178 158.756 569.888 159.742 574.021 159.742Z" fill="black"/>
<path d="M660.229 176.649C652.058 176.649 644.919 174.723 638.814 170.872C632.802 166.927 628.67 161.62 626.415 154.951L640.223 148.33C642.195 152.65 644.919 156.032 648.394 158.474C651.964 160.916 655.909 162.137 660.229 162.137C663.611 162.137 666.288 161.386 668.26 159.883C670.233 158.38 671.219 156.407 671.219 153.965C671.219 152.462 670.796 151.241 669.951 150.302C669.2 149.269 668.119 148.423 666.71 147.766C665.395 147.015 663.94 146.404 662.343 145.934L649.803 142.412C643.322 140.534 638.391 137.669 635.01 133.818C631.722 129.967 630.078 125.411 630.078 120.151C630.078 115.455 631.253 111.369 633.601 107.893C636.043 104.324 639.377 101.553 643.604 99.5808C647.925 97.6083 652.856 96.6221 658.398 96.6221C665.63 96.6221 672.017 98.3598 677.559 101.835C683.101 105.31 687.046 110.195 689.394 116.488L675.305 123.11C673.99 119.634 671.783 116.864 668.683 114.797C665.583 112.731 662.108 111.698 658.257 111.698C655.157 111.698 652.715 112.402 650.931 113.811C649.146 115.22 648.254 117.051 648.254 119.306C648.254 120.715 648.629 121.936 649.381 122.969C650.132 124.002 651.165 124.848 652.48 125.505C653.889 126.163 655.486 126.773 657.271 127.337L669.528 131C675.822 132.878 680.659 135.696 684.04 139.453C687.516 143.21 689.253 147.813 689.253 153.261C689.253 157.863 688.032 161.949 685.59 165.518C683.148 168.994 679.766 171.718 675.446 173.69C671.125 175.663 666.053 176.649 660.229 176.649Z" fill="black"/>
<path d="M703.437 174.958V98.3128H720.767V113.388L719.358 110.711C721.143 106.109 724.054 102.633 728.093 100.285C732.226 97.8431 737.016 96.6221 742.464 96.6221C748.1 96.6221 753.078 97.8431 757.399 100.285C761.813 102.727 765.242 106.156 767.684 110.57C770.126 114.891 771.347 119.916 771.347 125.646V174.958H752.89V130.014C752.89 126.632 752.233 123.72 750.918 121.278C749.603 118.836 747.771 116.958 745.423 115.643C743.169 114.234 740.492 113.529 737.392 113.529C734.386 113.529 731.71 114.234 729.361 115.643C727.013 116.958 725.182 118.836 723.867 121.278C722.552 123.72 721.894 126.632 721.894 130.014V174.958H703.437Z" fill="black"/>
<path d="M810.202 176.649C804.848 176.649 800.198 175.757 796.253 173.972C792.308 172.187 789.256 169.651 787.095 166.364C784.935 162.982 783.855 159.084 783.855 154.67C783.855 150.443 784.794 146.686 786.673 143.398C788.551 140.017 791.463 137.199 795.408 134.945C799.353 132.691 804.331 131.094 810.342 130.154L835.421 126.069V140.158L813.865 143.821C810.202 144.478 807.478 145.653 805.693 147.343C803.908 149.034 803.016 151.241 803.016 153.965C803.016 156.595 804.002 158.709 805.975 160.305C808.041 161.808 810.577 162.56 813.583 162.56C817.434 162.56 820.815 161.761 823.727 160.165C826.733 158.474 829.034 156.173 830.631 153.261C832.322 150.349 833.167 147.155 833.167 143.68V123.955C833.167 120.668 831.852 117.944 829.222 115.783C826.686 113.529 823.305 112.402 819.078 112.402C815.133 112.402 811.61 113.482 808.511 115.643C805.505 117.709 803.298 120.48 801.889 123.955L786.813 116.629C788.316 112.59 790.665 109.115 793.858 106.203C797.146 103.197 800.997 100.849 805.411 99.1581C809.826 97.4674 814.616 96.6221 819.782 96.6221C826.075 96.6221 831.617 97.7962 836.408 100.144C841.198 102.399 844.908 105.592 847.538 109.725C850.262 113.764 851.624 118.507 851.624 123.955V174.958H834.153V161.855L838.098 161.573C836.126 164.861 833.778 167.632 831.054 169.886C828.33 172.046 825.23 173.737 821.755 174.958C818.279 176.085 814.428 176.649 810.202 176.649Z" fill="black"/>
<path d="M905.597 176.649C897.988 176.649 891.132 174.911 885.026 171.436C879.015 167.867 874.272 163.076 870.796 157.065C867.321 150.96 865.583 144.103 865.583 136.495C865.583 128.886 867.321 122.077 870.796 116.065C874.272 110.054 879.015 105.31 885.026 101.835C891.132 98.3598 897.988 96.6221 905.597 96.6221C911.044 96.6221 916.117 97.6083 920.813 99.5808C925.509 101.459 929.548 104.089 932.93 107.471C936.405 110.758 938.894 114.703 940.397 119.306L924.194 126.35C922.785 122.499 920.39 119.4 917.009 117.051C913.721 114.703 909.917 113.529 905.597 113.529C901.558 113.529 897.941 114.515 894.748 116.488C891.648 118.46 889.206 121.184 887.422 124.66C885.637 128.135 884.745 132.127 884.745 136.635C884.745 141.144 885.637 145.136 887.422 148.611C889.206 152.087 891.648 154.811 894.748 156.783C897.941 158.756 901.558 159.742 905.597 159.742C910.011 159.742 913.862 158.568 917.15 156.22C920.437 153.871 922.785 150.725 924.194 146.78L940.397 154.106C938.894 158.427 936.452 162.325 933.071 165.8C929.689 169.182 925.65 171.859 920.954 173.831C916.258 175.71 911.138 176.649 905.597 176.649Z" fill="black"/>
<path d="M954.401 174.958V68.3027H972.858V138.185L965.814 136.072L1001.88 98.3128H1024.85L996.528 129.168L1025.41 174.958H1004.28L979.199 135.227L990.188 132.972L967.082 157.769L972.858 146.498V174.958H954.401Z" fill="black"/>
</svg>
