<svg width="531" height="91" viewBox="0 0 531 91" fill="none" xmlns="http://www.w3.org/2000/svg">
<path d="M94.6474 64.7179C94.2355 85.4551 68.0119 92.1372 52.0306 84.472C36.1025 92.1637 9.89209 85.4152 9.52012 64.7312C-1.67873 56.8136 -2.43595 36.661 8.94889 28.584C8.80276 25.1699 9.21458 22.0214 10.8884 19.0191C13.7845 13.8515 19.0451 11.6462 24.8638 11.9783C26.0461 5.84089 32.1171 1.16474 38.2413 0.792772C43.5816 0.460659 49.4648 2.5591 49.943 8.55042C50.2106 12.7709 49.7865 17.8683 50.1053 22.1858C50.5836 24.3644 53.3989 24.9042 54.0499 22.4465C54.3952 17.7571 53.6115 12.4832 54.0499 7.86014C54.3687 4.57886 57.5304 2.20093 60.5061 1.33744C68.4503 -0.97407 77.8292 3.84821 79.6757 12.0846C85.2154 11.8455 90.4627 14.0242 93.2791 18.9261C95.006 21.9284 95.3382 24.9573 95.3382 28.3847C106.192 36.8735 106.032 56.7206 94.6474 64.7445V64.7179ZM42.3329 46.6244C43.6082 45.3624 42.572 42.1475 41.7085 40.7925C38.9586 36.4484 32.5289 36.196 29.3406 40.208C27.9458 41.9615 26.2985 46.9034 29.6993 47.3019C32.5555 47.634 31.1317 43.8019 32.5 42.5C34.2934 40.7863 37.8413 41.746 38.5 44C38.5 44.9925 38.2811 46.1461 39.4767 46.9166C40.3934 47.5145 41.5624 47.3949 42.3329 46.6244ZM68.7957 37.3119C65.1424 37.4182 61.7947 40.3939 61.4095 44.0472C60.9811 46.3723 62.3878 48.1255 64.5 46.6244C65.4565 45.9469 65.128 44.4831 65.5 43.5C66.5229 40.6837 71.6764 40.5641 72.5 43.5C72.8188 44.6558 72.2778 45.8273 73.5 46.6244C74.3104 47.1558 74.8269 47.4613 75.6372 46.9299C77.1251 45.9602 76.7132 43.6088 76.1686 42.2006C75.0261 39.2515 71.984 37.2322 68.809 37.3252L68.7957 37.3119ZM34 53.4925C32.8177 53.612 32.1304 54.2896 32.1702 55.5117C32.2499 57.8631 36.687 61.5296 38.5468 62.7651C47.567 68.8095 60.7453 67.7734 68.7558 60.4669C70.3633 59.0056 74.1436 55.3656 71.5 53.4925C69.0291 51.7522 67.7487 55.0786 66.5 56.5C60.3758 63.5142 45.8681 64.1375 39 58C37.1266 56.6415 36.1255 53.2799 34 53.4925Z" fill="#6D3BE8"/>
<path d="M117.792 77.0654V18.2089H128.062L150.104 48.1507H145.206L166.773 18.2089H177.043V77.0654H166.22V30.4542L170.407 31.4813L148.05 61.265H146.786L124.981 31.4813L128.536 30.4542V77.0654H117.792ZM187.438 77.0654V34.0883H197.788V77.0654H187.438ZM187.438 29.2692V18.2089H197.788V29.2692H187.438ZM207.343 77.0654V34.0883H217.06V42.5415L216.27 41.0405C217.271 38.4598 218.904 36.5111 221.169 35.1943C223.486 33.825 226.172 33.1403 229.227 33.1403C232.387 33.1403 235.178 33.825 237.601 35.1943C240.076 36.5637 241.999 38.4861 243.368 40.9615C244.737 43.3842 245.422 46.202 245.422 49.4147V77.0654H235.073V51.8638C235.073 49.9677 234.704 48.335 233.967 46.9657C233.23 45.5963 232.203 44.5429 230.886 43.8056C229.622 43.0155 228.121 42.6205 226.383 42.6205C224.697 42.6205 223.196 43.0155 221.88 43.8056C220.563 44.5429 219.536 45.5963 218.798 46.9657C218.061 48.335 217.692 49.9677 217.692 51.8638V77.0654H207.343ZM274.161 78.0135C270 78.0135 266.287 77.0391 263.022 75.0904C259.756 73.089 257.176 70.3766 255.28 66.9532C253.383 63.5297 252.435 59.7376 252.435 55.5769C252.435 51.3634 253.383 47.5713 255.28 44.2006C257.176 40.8298 259.756 38.1438 263.022 36.1424C266.34 34.141 270.027 33.1403 274.082 33.1403C277.347 33.1403 280.244 33.7986 282.772 35.1153C285.353 36.3794 287.381 38.1701 288.855 40.4875L287.275 42.6205V17.2609H297.625V77.0654H287.828V68.7702L288.934 70.8243C287.46 73.1417 285.406 74.9324 282.772 76.1964C280.139 77.4078 277.268 78.0135 274.161 78.0135ZM275.267 68.5332C277.637 68.5332 279.718 67.9802 281.508 66.8742C283.299 65.7681 284.695 64.2408 285.695 62.292C286.749 60.3433 287.275 58.1049 287.275 55.5769C287.275 53.1015 286.749 50.8894 285.695 48.9407C284.695 46.9393 283.299 45.3856 281.508 44.2796C279.718 43.1736 277.637 42.6205 275.267 42.6205C272.95 42.6205 270.869 43.1999 269.026 44.3586C267.183 45.4646 265.734 46.992 264.681 48.9407C263.68 50.8368 263.18 53.0488 263.18 55.5769C263.18 58.1049 263.68 60.3433 264.681 62.292C265.734 64.2408 267.183 65.7681 269.026 66.8742C270.869 67.9802 272.95 68.5332 275.267 68.5332ZM323.606 78.0135C319.024 78.0135 315.022 76.9338 311.598 74.7744C308.227 72.5623 305.91 69.5866 304.646 65.8471L312.388 62.134C313.494 64.5568 315.022 66.4528 316.97 67.8222C318.972 69.1916 321.184 69.8762 323.606 69.8762C325.502 69.8762 327.004 69.4549 328.11 68.6122C329.216 67.7695 329.769 66.6635 329.769 65.2941C329.769 64.4514 329.532 63.7668 329.058 63.2401C328.636 62.6607 328.031 62.1867 327.241 61.818C326.503 61.3967 325.687 61.0543 324.791 60.791L317.76 58.816C314.126 57.7626 311.361 56.1562 309.465 53.9968C307.622 51.8374 306.7 49.283 306.7 46.3336C306.7 43.7002 307.358 41.4092 308.675 39.4605C310.044 37.4591 311.914 35.9054 314.284 34.7993C316.707 33.6933 319.472 33.1403 322.579 33.1403C326.635 33.1403 330.216 34.1147 333.324 36.0634C336.431 38.0121 338.643 40.7508 339.96 44.2796L332.06 47.9927C331.322 46.044 330.085 44.4903 328.347 43.3316C326.609 42.1729 324.66 41.5935 322.5 41.5935C320.762 41.5935 319.393 41.9885 318.392 42.7785C317.392 43.5686 316.891 44.5956 316.891 45.8596C316.891 46.6496 317.102 47.3343 317.523 47.9137C317.945 48.493 318.524 48.967 319.261 49.3357C320.051 49.7044 320.947 50.0467 321.947 50.3627L328.821 52.4168C332.349 53.4702 335.062 55.0502 336.958 57.1569C338.906 59.2636 339.881 61.8444 339.881 64.8991C339.881 67.4798 339.196 69.7709 337.827 71.7723C336.457 73.721 334.561 75.2484 332.139 76.3544C329.716 77.4604 326.872 78.0135 323.606 78.0135ZM347.834 77.0654V34.0883H357.551V42.5415L356.761 41.0405C357.762 38.4598 359.395 36.5111 361.659 35.1943C363.977 33.825 366.663 33.1403 369.718 33.1403C372.878 33.1403 375.669 33.825 378.092 35.1943C380.567 36.5637 382.49 38.4861 383.859 40.9615C385.228 43.3842 385.913 46.202 385.913 49.4147V77.0654H375.564V51.8638C375.564 49.9677 375.195 48.335 374.458 46.9657C373.72 45.5963 372.693 44.5429 371.377 43.8056C370.113 43.0155 368.612 42.6205 366.874 42.6205C365.188 42.6205 363.687 43.0155 362.37 43.8056C361.054 44.5429 360.027 45.5963 359.289 46.9657C358.552 48.335 358.183 49.9677 358.183 51.8638V77.0654H347.834ZM407.7 78.0135C404.698 78.0135 402.091 77.5131 399.879 76.5124C397.667 75.5117 395.955 74.0897 394.743 72.2463C393.532 70.3503 392.926 68.1645 392.926 65.6891C392.926 63.3191 393.453 61.2124 394.506 59.369C395.56 57.4729 397.193 55.8929 399.405 54.6289C401.617 53.3648 404.408 52.4695 407.779 51.9428L421.841 49.6517V57.5519L409.754 59.606C407.7 59.9747 406.172 60.633 405.172 61.581C404.171 62.5291 403.671 63.7668 403.671 65.2941C403.671 66.7688 404.224 67.9539 405.33 68.8492C406.488 69.6919 407.91 70.1132 409.596 70.1132C411.755 70.1132 413.651 69.6656 415.284 68.7702C416.969 67.8222 418.26 66.5318 419.155 64.8991C420.103 63.2664 420.577 61.4757 420.577 59.527V48.4667C420.577 46.6233 419.84 45.0959 418.365 43.8846C416.943 42.6205 415.047 41.9885 412.677 41.9885C410.465 41.9885 408.49 42.5942 406.752 43.8056C405.066 44.9643 403.829 46.518 403.039 48.4667L394.585 44.3586C395.428 42.0939 396.745 40.1451 398.536 38.5124C400.379 36.8271 402.538 35.5104 405.014 34.5623C407.489 33.6143 410.175 33.1403 413.072 33.1403C416.601 33.1403 419.708 33.7986 422.394 35.1153C425.08 36.3794 427.161 38.1701 428.635 40.4875C430.163 42.7522 430.926 45.4119 430.926 48.4667V77.0654H421.13V69.7182L423.342 69.5602C422.236 71.4036 420.919 72.9573 419.392 74.2214C417.865 75.4327 416.127 76.3807 414.178 77.0654C412.229 77.6974 410.07 78.0135 407.7 78.0135ZM461.19 78.0135C456.924 78.0135 453.079 77.0391 449.656 75.0904C446.285 73.089 443.626 70.4029 441.677 67.0322C439.728 63.6087 438.754 59.764 438.754 55.4979C438.754 51.2318 439.728 47.4133 441.677 44.0426C443.626 40.6718 446.285 38.0121 449.656 36.0634C453.079 34.1147 456.924 33.1403 461.19 33.1403C464.245 33.1403 467.089 33.6933 469.723 34.7993C472.356 35.8527 474.621 37.3274 476.517 39.2235C478.465 41.0668 479.861 43.2789 480.704 45.8596L471.619 49.8097C470.829 47.6503 469.486 45.9123 467.589 44.5956C465.746 43.2789 463.613 42.6205 461.19 42.6205C458.926 42.6205 456.898 43.1736 455.107 44.2796C453.369 45.3856 452 46.913 450.999 48.8617C449.998 50.8104 449.498 53.0488 449.498 55.5769C449.498 58.1049 449.998 60.3433 450.999 62.292C452 64.2408 453.369 65.7681 455.107 66.8742C456.898 67.9802 458.926 68.5332 461.19 68.5332C463.666 68.5332 465.825 67.8749 467.668 66.5582C469.512 65.2415 470.829 63.4771 471.619 61.265L480.704 65.3731C479.861 67.7959 478.492 69.9816 476.596 71.9303C474.7 73.8263 472.435 75.3274 469.802 76.4334C467.168 77.4868 464.298 78.0135 461.19 78.0135ZM488.556 77.0654V17.2609H498.906V56.4459L494.956 55.2609L515.18 34.0883H528.058L512.178 51.3898L528.374 77.0654H516.523L502.461 54.7869L508.623 53.5228L495.667 67.4272L498.906 61.107V77.0654H488.556Z" fill="black"/>
</svg>
